#tb 0: 2/25
#media_type 0: video
#codec_id 0: rawvideo
#dimensions 0: 352x576
#sar 0: 0/1
0,          0,          0,        1,   304128, 0xd01cef40
0,          1,          1,        1,   304128, 0xdfe27709
0,          2,          2,        1,   304128, 0xe07e5f47
0,          3,          3,        1,   304128, 0xb35507de
0,          4,          4,        1,   304128, 0x2246b93b
